HIERARCHY
ROOT Hips
{
  OFFSET 51.7433 85.6888 9.51668
  CHANNELS 6 Xposition Yposition Zposition Zrotation Xrotation Yrotation
  JOINT spine
  {
    OFFSET 0 6.3926 0.367606
    CHANNELS 3 Zrotation Xrotation Yrotation
    JOINT spine1
    {
      OFFSET 0 9.17611 0
      CHANNELS 3 Zrotation Xrotation Yrotation
      JOINT spine2
      {
        OFFSET 0 8.79238 0
        CHANNELS 3 Zrotation Xrotation Yrotation
        JOINT Neck
        {
          OFFSET 0 22.5737 1.07624
          CHANNELS 3 Zrotation Xrotation Yrotation
          JOINT Head
          {
            OFFSET 0 6.82011 0
            CHANNELS 3 Zrotation Xrotation Yrotation
            End Site
            {
              OFFSET 0 16.5085 -5.44427
            }
          }
        }
        JOINT RightShoulder
        {
          OFFSET -3.70221 9.49509 -0.515508
          CHANNELS 3 Zrotation Xrotation Yrotation
          JOINT RightArm
          {
            OFFSET 0 12.4537 0
            CHANNELS 3 Zrotation Xrotation Yrotation
            JOINT RightArmRoll
            {
              OFFSET 0 6.28686 0
              CHANNELS 3 Zrotation Xrotation Yrotation
              JOINT RightForeArm
              {
                OFFSET 0 18.3114 0
                CHANNELS 3 Zrotation Xrotation Yrotation
                JOINT RightForeArmRoll
                {
                  OFFSET 0 7.05483 0
                  CHANNELS 3 Zrotation Xrotation Yrotation
                  JOINT RightHand
                  {
                    OFFSET 0 14.1575 0
                    CHANNELS 3 Zrotation Xrotation Yrotation
                    End Site
                    {
                      OFFSET 0 0 0
                    }
                  }
                }
              }
            }
          }
        }
        JOINT LeftShoulder
        {
          OFFSET 3.70221 9.49509 -0.515508
          CHANNELS 3 Zrotation Xrotation Yrotation
          JOINT LeftArm
          {
            OFFSET 0 12.4537 0
            CHANNELS 3 Zrotation Xrotation Yrotation
            JOINT LeftArmRoll
            {
              OFFSET 0 6.28686 0
              CHANNELS 3 Zrotation Xrotation Yrotation
              JOINT LeftForeArm
              {
                OFFSET 0 18.3114 0
                CHANNELS 3 Zrotation Xrotation Yrotation
                JOINT LeftForeArmRoll
                {
                  OFFSET 0 7.05482 0
                  CHANNELS 3 Zrotation Xrotation Yrotation
                  JOINT LeftHand
                  {
                    OFFSET 0 14.1575 0
                    CHANNELS 3 Zrotation Xrotation Yrotation
                    End Site
                    {
                      OFFSET 0 0 0
                    }
                  }
                }
              }
            }
          }
        }
      }
    }
  }
  JOINT RightUpLeg
  {
    OFFSET -5.66616 -1.03903 -0.87161
    CHANNELS 3 Zrotation Xrotation Yrotation
    JOINT RightUpLegRoll
    {
      OFFSET 0 16.6005 0
      CHANNELS 3 Zrotation Xrotation Yrotation
      JOINT RightLeg
      {
        OFFSET 0 -20.5572 0
        CHANNELS 3 Zrotation Xrotation Yrotation
        JOINT RightLegRoll
        {
          OFFSET 0 20.6244 0
          CHANNELS 3 Zrotation Xrotation Yrotation
          JOINT RightFoot
          {
            OFFSET 0 17.1664 0
            CHANNELS 3 Zrotation Xrotation Yrotation
            JOINT RightToeBase
            {
              OFFSET 0 14.3502 0
              CHANNELS 3 Zrotation Xrotation Yrotation
              End Site
              {
                OFFSET 0.00608252 6.94971 -0.80106
              }
            }
          }
        }
      }
    }
  }
  JOINT LeftUpLeg
  {
    OFFSET 5.66616 -1.03903 -0.87161
    CHANNELS 3 Zrotation Xrotation Yrotation
    JOINT LeftUpLegRoll
    {
      OFFSET 0 16.6006 0
      CHANNELS 3 Zrotation Xrotation Yrotation
      JOINT LeftLeg
      {
        OFFSET 0 20.5571 0
        CHANNELS 3 Zrotation Xrotation Yrotation
        JOINT LeftLegRoll
        {
          OFFSET 0 20.8151 0
          CHANNELS 3 Zrotation Xrotation Yrotation
          JOINT LeftFoot
          {
            OFFSET 0 16.9757 0
            CHANNELS 3 Zrotation Xrotation Yrotation
            JOINT LeftToeBase
            {
              OFFSET 0 14.3502 0
              CHANNELS 3 Zrotation Xrotation Yrotation
              End Site
              {
                OFFSET -0.0272592 6.94971 -0.80106
              }
            }
          }
        }
      }
    }
  }
}
MOTION
Frames: 10
Frame Time: 0.00208333
51.3485 85.6062 10.789 -2.87809 -3.75744 -2.05741 -0.115329 -1.26965 -0.0962285 -0.223176 1.4805 -0.18015 -0.221225 3.12556 -0.176563 4.2317 8.35437 -0.529288 -2.85894 3.23347 0.49646 62.4411 -2.86119 -2.06837 108.705 16.2124 2.55807 -6.81019e-006 4.2638e-006 -7.61187e-006 14.9906 5.89449 -1.08514 4.36761e-006 2.02107e-006 -3.00166 8.02894 -4.95144 0.697706 -54.7455 -0.325831 -0.329385 -112.49 13.1054 -0.24526 4.40746e-006 -2.73485e-006 2.51723e-006 -10.8632 4.29191 0.923297 -2.94489e-007 -1.44088e-006 3 -8.02891 -4.95145 -0.697669 178.016 -3.02297 -0.373161 180 7.0154e-015 178.892 177.144 4.7019 179.768 1.5948e-006 1.71921e-006 0.0409272 -18.6899 68.0393 19.5485 8.13649 25.2327 -3.48774 -172.078 -2.3831 -1.78989 4.54188e-006 -4.6773e-006 -1.02706 -1.7065 -9.76593 0.457148 -1.36302e-006 -6.64027e-007 -0.138271 20.1032 71.3112 -22.6129 -8.13655 25.2336 3.4865 
51.351 85.6067 10.7888 -2.88162 -3.75873 -2.05884 -0.115349 -1.27082 -0.0961208 -0.222456 1.47703 -0.179987 -0.220504 3.12209 -0.176416 4.23018 8.37322 -0.523581 -2.85529 3.23387 0.502676 62.4475 -2.85868 -2.06746 108.699 16.2078 2.56709 -6.81019e-006 4.2638e-006 -7.61187e-006 14.9885 5.88925 -1.08452 4.36761e-006 2.02107e-006 -3.00166 8.02894 -4.95144 0.697706 -54.7497 -0.319165 -0.333323 -112.484 13.1039 -0.253955 4.40746e-006 -2.73485e-006 2.51723e-006 -10.861 4.2785 0.921719 -2.94489e-007 -1.44088e-006 3 -8.02891 -4.95145 -0.697669 178.019 -3.02395 -0.371853 180 7.0154e-015 178.892 177.14 4.70316 179.768 1.5948e-006 1.71921e-006 0.0409272 -18.6895 68.0389 19.548 8.13649 25.2327 -3.48774 -172.071 -2.38171 -1.79849 4.54188e-006 -4.6773e-006 -1.02702 -1.71298 -9.77088 0.456381 -1.36302e-006 -6.64027e-007 -0.138271 20.1034 71.3123 -22.614 -8.13655 25.2336 3.4865 
51.3562 85.607 10.7894 -2.8852 -3.75987 -2.06025 -0.115378 -1.27204 -0.095995 -0.221685 1.47345 -0.179822 -0.219732 3.11851 -0.176267 4.22839 8.39257 -0.517849 -2.85142 3.23383 0.508863 62.4536 -2.85632 -2.06661 108.693 16.2034 2.57602 -6.81019e-006 4.2638e-006 -7.61187e-006 14.9863 5.88333 -1.0838 4.36761e-006 2.02107e-006 -3.00166 8.02894 -4.95144 0.697706 -54.7542 -0.312081 -0.337506 -112.477 13.102 -0.262512 4.40746e-006 -2.73485e-006 2.51723e-006 -10.8592 4.2651 0.920132 -2.94489e-007 -1.44088e-006 3 -8.02891 -4.95145 -0.697669 178.021 -3.02479 -0.370573 180 7.0154e-015 178.892 177.136 4.70441 179.768 1.5948e-006 1.71921e-006 0.0409272 -18.6891 68.0384 19.5475 8.13649 25.2327 -3.48774 -172.063 -2.3801 -1.80713 4.54188e-006 -4.6773e-006 -1.02698 -1.71947 -9.77583 0.455621 -1.36302e-006 -6.64027e-007 -0.138271 20.1036 71.3133 -22.6151 -8.13655 25.2336 3.4865 
51.3536 85.6332 10.7907 -2.88882 -3.7609 -2.06165 -0.115415 -1.2733 -0.0958565 -0.220878 1.46978 -0.179655 -0.218924 3.11485 -0.176117 4.22643 8.41228 -0.512101 -2.84739 3.23347 0.515031 62.4595 -2.85406 -2.0658 108.688 16.1991 2.58486 -6.81019e-006 4.2638e-006 -7.61187e-006 14.9842 5.87694 -1.083 4.36761e-006 2.02107e-006 -3.00166 8.02894 -4.95144 0.697706 -54.7588 -0.304703 -0.341864 -112.47 13.0999 -0.270971 4.40746e-006 -2.73485e-006 2.51723e-006 -10.8576 4.2517 0.918539 -2.94489e-007 -1.44088e-006 3 -8.02891 -4.95145 -0.697669 178.024 -3.02553 -0.369313 180 7.0154e-015 178.892 177.131 4.70567 179.769 1.5948e-006 1.71921e-006 0.0409272 -18.6887 68.0379 19.547 8.13649 25.2327 -3.48774 -172.056 -2.37835 -1.81579 4.54188e-006 -4.6773e-006 -1.02692 -1.72596 -9.78078 0.454866 -1.36302e-006 -6.64027e-007 -0.138271 20.1036 71.3142 -22.6161 -8.13655 25.2336 3.4865 
51.3482 85.6264 10.7796 -2.89246 -3.76186 -2.06303 -0.115456 -1.27457 -0.0957107 -0.22005 1.46608 -0.179487 -0.218095 3.11114 -0.175967 4.22436 8.4322 -0.506342 -2.84326 3.23292 0.521187 62.4653 -2.85186 -2.06502 108.682 16.1948 2.59367 -6.81019e-006 4.2638e-006 -7.61187e-006 14.9821 5.87027 -1.08217 4.36761e-006 2.02107e-006 -3.00166 8.02894 -4.95144 0.697706 -54.7636 -0.297155 -0.346321 -112.464 13.0977 -0.279373 4.40746e-006 -2.73485e-006 2.51723e-006 -10.8562 4.2383 0.916944 -2.94489e-007 -1.44088e-006 3 -8.02891 -4.95145 -0.697669 178.027 -3.02621 -0.368066 180 7.0154e-015 178.892 177.127 4.70692 179.769 1.5948e-006 1.71921e-006 0.0409272 -18.6883 68.0375 19.5465 8.13649 25.2327 -3.48774 -172.048 -2.37651 -1.82446 4.54188e-006 -4.6773e-006 -1.02686 -1.73247 -9.78573 0.454114 -1.36302e-006 -6.64027e-007 -0.138271 20.1036 71.3151 -22.6172 -8.13655 25.2336 3.4865 
51.3456 85.6058 10.7843 -2.89611 -3.76281 -2.06442 -0.115497 -1.27586 -0.0955628 -0.219217 1.46236 -0.179319 -0.21726 3.10742 -0.175817 4.22226 8.45218 -0.50058 -2.8391 3.23233 0.52734 62.4711 -2.84968 -2.06424 108.677 16.1905 2.60246 -6.81019e-006 4.2638e-006 -7.61187e-006 14.98 5.86353 -1.08132 4.36761e-006 2.02107e-006 -3.00166 8.02894 -4.95144 0.697706 -54.7683 -0.289562 -0.350806 -112.457 13.0954 -0.28776 4.40746e-006 -2.73485e-006 2.51723e-006 -10.8549 4.22491 0.915347 -2.94489e-007 -1.44088e-006 3 -8.02891 -4.95145 -0.697669 178.029 -3.02688 -0.366821 180 7.0154e-015 178.892 177.123 4.70817 179.77 1.5948e-006 1.71921e-006 0.0409272 -18.6879 68.037 19.5459 8.13649 25.2327 -3.48774 -172.041 -2.37465 -1.83314 4.54188e-006 -4.6773e-006 -1.02679 -1.73898 -9.79068 0.453363 -1.36302e-006 -6.64027e-007 -0.138271 20.1037 71.316 -22.6182 -8.13655 25.2336 3.4865 
51.3478 85.6161 10.7926 -2.89974 -3.76378 -2.06581 -0.115537 -1.27714 -0.0954184 -0.218393 1.45866 -0.179152 -0.216435 3.10373 -0.175667 4.2202 8.47206 -0.494822 -2.83499 3.23181 0.533498 62.477 -2.84747 -2.06345 108.671 16.1862 2.61127 -6.81019e-006 4.2638e-006 -7.61187e-006 14.9778 5.85691 -1.08049 4.36761e-006 2.02107e-006 -3.00166 8.02894 -4.95144 0.697706 -54.7731 -0.282045 -0.355244 -112.45 13.0932 -0.296172 4.40746e-006 -2.73485e-006 2.51723e-006 -10.8534 4.21151 0.913753 -2.94489e-007 -1.44088e-006 3 -8.02891 -4.95145 -0.697669 178.032 -3.02757 -0.365571 180 7.0154e-015 178.892 177.118 4.70942 179.77 1.5948e-006 1.71921e-006 0.0409272 -18.6876 68.0365 19.5454 8.13649 25.2327 -3.48774 -172.033 -2.37282 -1.84182 4.54188e-006 -4.6773e-006 -1.02673 -1.74548 -9.79564 0.45261 -1.36302e-006 -6.64027e-007 -0.138271 20.1037 71.3169 -22.6192 -8.13655 25.2336 3.4865 
51.3453 85.6103 10.791 -2.90335 -3.76483 -2.06721 -0.115572 -1.27838 -0.0952826 -0.217593 1.45502 -0.178986 -0.215635 3.10008 -0.175517 4.21826 8.4917 -0.489075 -2.83099 3.23152 0.53967 62.4829 -2.84519 -2.06263 108.666 16.1818 2.62013 -6.81019e-006 4.2638e-006 -7.61187e-006 14.9757 5.85062 -1.07971 4.36761e-006 2.02107e-006 -3.00166 8.02894 -4.95144 0.697706 -54.7777 -0.27473 -0.359564 -112.443 13.0911 -0.304651 4.40746e-006 -2.73485e-006 2.51723e-006 -10.8518 4.19811 0.912162 -2.94489e-007 -1.44088e-006 3 -8.02891 -4.95145 -0.697669 178.035 -3.02833 -0.364307 180 7.0154e-015 178.892 177.114 4.71067 179.771 1.5948e-006 1.71921e-006 0.0409272 -18.6872 68.0361 19.5449 8.13649 25.2327 -3.48774 -172.025 -2.3711 -1.85047 4.54188e-006 -4.6773e-006 -1.02667 -1.75198 -9.80059 0.451854 -1.36302e-006 -6.64027e-007 -0.138271 20.1038 71.3179 -22.6203 -8.13655 25.2336 3.4865 
51.3456 85.6098 10.7817 -2.90692 -3.76601 -2.06862 -0.1156 -1.27959 -0.0951609 -0.216834 1.45146 -0.178821 -0.214874 3.09653 -0.175369 4.21651 8.51094 -0.483346 -2.82717 3.23158 0.545864 62.4891 -2.8428 -2.06177 108.66 16.1774 2.62907 -6.81019e-006 4.2638e-006 -7.61187e-006 14.9736 5.84486 -1.07901 4.36761e-006 2.02107e-006 -3.00166 8.02894 -4.95144 0.697706 -54.7821 -0.26774 -0.363693 -112.437 13.0894 -0.313238 4.40746e-006 -2.73485e-006 2.51723e-006 -10.8499 4.1847 0.910578 -2.94489e-007 -1.44088e-006 3 -8.02891 -4.95145 -0.697669 178.037 -3.0292 -0.363021 180 7.0154e-015 178.892 177.109 4.71192 179.771 1.5948e-006 1.71921e-006 0.0409272 -18.6868 68.0356 19.5444 8.13649 25.2327 -3.48774 -172.018 -2.36954 -1.8591 4.54188e-006 -4.6773e-006 -1.02663 -1.75847 -9.80554 0.451092 -1.36302e-006 -6.64027e-007 -0.138271 20.1039 71.3189 -22.6214 -8.13655 25.2336 3.4865 
51.3471 85.6284 10.7889 -2.91044 -3.76735 -2.07006 -0.115616 -1.28075 -0.0950586 -0.216129 1.44802 -0.178659 -0.214168 3.09309 -0.175222 4.21502 8.52963 -0.477641 -2.8236 3.23212 0.552088 62.4955 -2.84024 -2.06083 108.653 16.1728 2.63813 -6.81019e-006 4.2638e-006 -7.61187e-006 14.9714 5.83981 -1.07842 4.36761e-006 2.02107e-006 -3.00166 8.02894 -4.95144 0.697706 -54.7862 -0.261199 -0.367556 -112.43 13.0879 -0.321975 4.40746e-006 -2.73485e-006 2.51723e-006 -10.8476 4.17129 0.909003 -2.94489e-007 -1.44088e-006 3 -8.02891 -4.95145 -0.697669 178.04 -3.03023 -0.361704 180 7.0154e-015 178.892 177.105 4.7132 179.772 1.5948e-006 1.71921e-006 0.0409272 -18.6864 68.0351 19.5439 8.13649 25.2327 -3.48774 -172.01 -2.36821 -1.86769 4.54188e-006 -4.6773e-006 -1.0266 -1.76494 -9.81048 0.450322 -1.36302e-006 -6.64027e-007 -0.138271 20.1042 71.3199 -22.6225 -8.13655 25.2336 3.4865 
